<svg xmlns="http://www.w3.org/2000/svg" viewBox="0 0 512 512" width="512" height="512">
  <defs>
    <linearGradient id="g" x1="0" y1="0" x2="1" y2="1">
      <stop offset="0" stop-color="#2e7d64"/>
      <stop offset="1" stop-color="#1a5d4a"/>
    </linearGradient>
  </defs>
  <rect width="512" height="512" rx="96" fill="url(#g)"/>
  <!-- kubah masjid -->
  <path d="M256 96c-6 28 8 44 8 44l-8 8-8-8s14-16 8-44z" fill="#ffd54f"/>
  <path d="M256 84c-22 0-40 18-40 40h24c0-9 7-16 16-16s16 7 16 16h24c0-22-18-40-40-40z" fill="#ffd54f"/>
  <!-- badan & serambi -->
  <rect x="168" y="264" width="176" height="128" rx="12" fill="#ffffff"/>
  <rect x="140" y="392" width="232" height="48" rx="24" fill="#ffffff"/>
  <!-- pintu -->
  <path d="M232 392v-60h48v60z" fill="#1a5d4a"/>
  <!-- menara kiri/kanan -->
  <rect x="150" y="200" width="14" height="150" rx="7" fill="#ffffff"/>
  <rect x="348" y="200" width="14" height="150" rx="7" fill="#ffffff"/>
  <circle cx="157" cy="190" r="8" fill="#ffd54f"/>
  <circle cx="355" cy="190" r="8" fill="#ffd54f"/>
  <!-- sabit di atas kubah -->
  <path d="M256 78v14" stroke="#ffd54f" stroke-width="3"/>
  <path d="M244 78h8l4-10 4 10h8l-6 6 2 9-8-5-8 5 2-9z" fill="#ffd54f"/>
</svg>